<?xml version="1.0" encoding="iso-8859-1"?>
<!-- Generator: Adobe Illustrator 19.1.0, SVG Export Plug-In . SVG Version: 6.00 Build 0)  -->
<svg version="1.1" xmlns="http://www.w3.org/2000/svg" xmlns:xlink="http://www.w3.org/1999/xlink" x="0px" y="0px"
	 viewBox="0 0 32 32" style="enable-background:new 0 0 32 32;" xml:space="preserve">
<g id="guides">
</g>
<g id="cupcake">
</g>
<g id="heart">
</g>
<g id="heart_3">
</g>
<g id="search">
</g>
<g id="rings">
</g>
<g id="ring">
</g>
<g id="ring_2">
</g>
<g id="ring_3">
</g>
<g id="female">
</g>
<g id="male">
</g>
<g id="world">
</g>
<g id="book">
</g>
<g id="computer">
</g>
<g id="mail">
</g>
<g id="letter">
</g>
<g id="chat">
</g>
<g id="calendar">
</g>
<g id="gift">
</g>
<g id="music">
</g>
<g id="bed">
</g>
<g id="condom">
</g>
<g id="lips">
</g>
<g id="champagne">
</g>
<g id="glass_1_">
</g>
<g id="glass_2">
</g>
<g id="glasses">
	<line style="fill:none;stroke:#6D6E71;stroke-width:2;stroke-miterlimit:10;" x1="7" y1="18" x2="7" y2="27"/>
	<line style="fill:none;stroke:#6D6E71;stroke-width:2;stroke-miterlimit:10;" x1="2" y1="27" x2="12" y2="27"/>
	<path style="fill:none;stroke:#6D6E71;stroke-width:2;stroke-miterlimit:10;" d="M13,10.27c0,4.418-1.582,8-6,8s-6-3.582-6-8V1h12
		V10.27z"/>
	<line style="fill:none;stroke:#6D6E71;stroke-width:2;stroke-miterlimit:10;" x1="1" y1="7" x2="13" y2="7"/>
	<path style="fill:none;stroke:#6D6E71;stroke-width:2;stroke-miterlimit:10;" d="M7.154,15.27c-1.658,0-3-1.344-3-3"/>
	<line style="fill:none;stroke:#6D6E71;stroke-width:2;stroke-miterlimit:10;" x1="24.441" y1="21.192" x2="26.213" y2="30.016"/>
	<line style="fill:none;stroke:#6D6E71;stroke-width:2;stroke-miterlimit:10;" x1="21.312" y1="31" x2="31.115" y2="29.031"/>
	<path style="fill:none;stroke:#6D6E71;stroke-width:2;stroke-miterlimit:10;" d="M28.748,12.167
		c0.871,4.332,0.025,8.155-4.307,9.025c-4.332,0.87-6.588-2.33-7.457-6.662l-1.774-8.824l11.766-2.363L28.748,12.167z"/>
	<line style="fill:none;stroke:#6D6E71;stroke-width:2;stroke-miterlimit:10;" x1="16.393" y1="11.588" x2="28.158" y2="9.226"/>
	<path style="fill:none;stroke:#6D6E71;stroke-width:2;stroke-miterlimit:10;" d="M24.342,18.152
		c-1.625,0.327-3.207-0.727-3.533-2.351"/>
</g>
<g id="rose">
</g>
<g id="candle">
</g>
<g id="candle_2">
</g>
<g id="bow">
</g>
<g id="bow_2">
</g>
<g id="bow_3">
</g>
<g id="unlocked">
</g>
<g id="locked">
</g>
<g id="key">
</g>
<g id="pin">
</g>
<g id="candy">
</g>
<g id="cup">
</g>
<g id="shopping">
</g>
<g id="heart_2">
</g>
<g id="dress">
</g>
<g id="do_not_disturb">
</g>
<g id="photo_camera">
</g>
<g id="photos">
</g>
<g id="diamond">
</g>
<g id="church">
</g>
<g id="cake">
</g>
<g id="mustache">
</g>
<g id="video_camera">
</g>
<g id="balloon">
</g>
<g id="bible">
</g>
<g id="necklace">
</g>
<g id="bird">
</g>
<g id="tie">
</g>
<g id="bell">
</g>
<g id="food">
</g>
<g id="violin">
</g>
<g id="car">
</g>
<g id="horn">
</g>
<g id="hearts">
</g>
</svg>
