<?xml version="1.0" encoding="iso-8859-1"?>
<!-- Generator: Adobe Illustrator 19.1.0, SVG Export Plug-In . SVG Version: 6.00 Build 0)  -->
<svg version="1.1" xmlns="http://www.w3.org/2000/svg" xmlns:xlink="http://www.w3.org/1999/xlink" x="0px" y="0px"
	 viewBox="0 0 32 32" style="enable-background:new 0 0 32 32;" xml:space="preserve">
<g id="guides">
</g>
<g id="cupcake">
</g>
<g id="heart">
</g>
<g id="heart_3">
</g>
<g id="search">
</g>
<g id="rings">
</g>
<g id="ring">
</g>
<g id="ring_2">
</g>
<g id="ring_3">
</g>
<g id="female">
</g>
<g id="male">
</g>
<g id="world">
</g>
<g id="book">
</g>
<g id="computer">
</g>
<g id="mail">
</g>
<g id="letter">
</g>
<g id="chat">
</g>
<g id="calendar">
</g>
<g id="gift">
</g>
<g id="music">
</g>
<g id="bed">
</g>
<g id="condom">
</g>
<g id="lips">
</g>
<g id="champagne">
</g>
<g id="glass_1_">
</g>
<g id="glass_2">
</g>
<g id="glasses">
</g>
<g id="rose">
</g>
<g id="candle">
</g>
<g id="candle_2">
</g>
<g id="bow">
</g>
<g id="bow_2">
</g>
<g id="bow_3">
</g>
<g id="unlocked">
</g>
<g id="locked">
</g>
<g id="key">
</g>
<g id="pin">
</g>
<g id="candy">
</g>
<g id="cup">
</g>
<g id="shopping">
</g>
<g id="heart_2">
</g>
<g id="dress">
</g>
<g id="do_not_disturb">
</g>
<g id="photo_camera">
</g>
<g id="photos">
</g>
<g id="diamond">
</g>
<g id="church">
</g>
<g id="cake">
	<path style="fill:none;stroke:#6D6E71;stroke-width:2;stroke-miterlimit:10;" d="M31,31H1v-9c0-1.656,1.344-3,3-3h24
		c1.656,0,3,1.344,3,3V31z"/>
	<path style="fill:none;stroke:#6D6E71;stroke-width:2;stroke-miterlimit:10;" d="M4,19v-7c0-1.656,1.344-3,3-3h18
		c1.656,0,3,1.344,3,3v7"/>
	<path style="fill:none;stroke:#6D6E71;stroke-width:2;stroke-miterlimit:10;" d="M9,9V4c0-1.656,1.344-3,3-3h8c1.656,0,3,1.344,3,3
		v5"/>
	<path style="fill:none;stroke:#6D6E71;stroke-width:2;stroke-miterlimit:10;" d="M31,22c0,1.655-1.345,3-3,3c-1.656,0-3-1.345-3-3
		c0,1.655-1.345,3-3,3c-1.656,0-3-1.345-3-3c0,1.655-1.345,3-3,3c-1.656,0-3-1.345-3-3c0,1.655-1.345,3-3,3c-1.656,0-3-1.345-3-3
		c0,1.655-1.345,3-3,3c-1.656,0-3-1.345-3-3"/>
	<path style="fill:none;stroke:#6D6E71;stroke-width:2;stroke-miterlimit:10;" d="M28,12c0,1.655-1.345,3-3,3c-1.656,0-3-1.345-3-3
		c0,1.655-1.345,3-3,3c-1.656,0-3-1.345-3-3c0,1.655-1.345,3-3,3c-1.656,0-3-1.345-3-3c0,1.655-1.345,3-3,3c-1.656,0-3-1.345-3-3"/>
	<path style="fill:none;stroke:#6D6E71;stroke-width:2;stroke-miterlimit:10;" d="M23,6h-1c-1.656,0-3-1.345-3-3
		c0,1.655-1.345,3-3,3c-1.656,0-3-1.345-3-3c0,1.655-1.345,3-3,3H9"/>
</g>
<g id="mustache">
</g>
<g id="video_camera">
</g>
<g id="balloon">
</g>
<g id="bible">
</g>
<g id="necklace">
</g>
<g id="bird">
</g>
<g id="tie">
</g>
<g id="bell">
</g>
<g id="food">
</g>
<g id="violin">
</g>
<g id="car">
</g>
<g id="horn">
</g>
<g id="hearts">
</g>
</svg>
