<?xml version="1.0" encoding="iso-8859-1"?>
<!-- Generator: Adobe Illustrator 19.1.0, SVG Export Plug-In . SVG Version: 6.00 Build 0)  -->
<svg version="1.1" xmlns="http://www.w3.org/2000/svg" xmlns:xlink="http://www.w3.org/1999/xlink" x="0px" y="0px"
	 viewBox="0 0 32 32" style="enable-background:new 0 0 32 32;" xml:space="preserve">
<g id="guides">
</g>
<g id="cupcake">
</g>
<g id="heart">
</g>
<g id="heart_3">
</g>
<g id="search">
</g>
<g id="rings">
</g>
<g id="ring">
</g>
<g id="ring_2">
</g>
<g id="ring_3">
</g>
<g id="female">
</g>
<g id="male">
</g>
<g id="world">
</g>
<g id="book">
</g>
<g id="computer">
</g>
<g id="mail">
</g>
<g id="letter">
</g>
<g id="chat">
</g>
<g id="calendar">
</g>
<g id="gift">
</g>
<g id="music">
</g>
<g id="bed">
</g>
<g id="condom">
</g>
<g id="lips">
</g>
<g id="champagne">
</g>
<g id="glass_1_">
</g>
<g id="glass_2">
</g>
<g id="glasses">
</g>
<g id="rose">
</g>
<g id="candle">
</g>
<g id="candle_2">
</g>
<g id="bow">
</g>
<g id="bow_2">
</g>
<g id="bow_3">
</g>
<g id="unlocked">
</g>
<g id="locked">
</g>
<g id="key">
</g>
<g id="pin">
</g>
<g id="candy">
</g>
<g id="cup">
</g>
<g id="shopping">
</g>
<g id="heart_2">
</g>
<g id="dress">
	<path style="fill:none;stroke:#6D6E71;stroke-width:2;stroke-miterlimit:10;" d="M16.002,18.038l-6.07-6.039l-0.675-0.673
		c-1.676-1.667-1.676-4.371,0-6.04l0,0c1.674-1.664,4.391-1.664,6.067,0l0.621,0.613L16,5.958l0.676-0.672
		c1.676-1.664,4.393-1.664,6.067,0l0,0c1.676,1.669,1.676,4.373,0,6.04l-6.642,6.608L16.002,18.038z"/>
	<line style="fill:none;stroke:#6D6E71;stroke-width:2;stroke-miterlimit:10;" x1="12" y1="4.048" x2="12" y2="0"/>
	<line style="fill:none;stroke:#6D6E71;stroke-width:2;stroke-miterlimit:10;" x1="20" y1="4.048" x2="20" y2="0"/>
	<path style="fill:none;stroke:#6D6E71;stroke-width:2;stroke-miterlimit:10;" d="M12.384,14.439C5.847,16.057,1,21.963,1,29v2h30
		v-2c0-7.038-4.848-12.944-11.387-14.561"/>
</g>
<g id="do_not_disturb">
</g>
<g id="photo_camera">
</g>
<g id="photos">
</g>
<g id="diamond">
</g>
<g id="church">
</g>
<g id="cake">
</g>
<g id="mustache">
</g>
<g id="video_camera">
</g>
<g id="balloon">
</g>
<g id="bible">
</g>
<g id="necklace">
</g>
<g id="bird">
</g>
<g id="tie">
</g>
<g id="bell">
</g>
<g id="food">
</g>
<g id="violin">
</g>
<g id="car">
</g>
<g id="horn">
</g>
<g id="hearts">
</g>
</svg>
