<?xml version="1.0" encoding="iso-8859-1"?>
<!-- Generator: Adobe Illustrator 19.1.0, SVG Export Plug-In . SVG Version: 6.00 Build 0)  -->
<svg version="1.1" xmlns="http://www.w3.org/2000/svg" xmlns:xlink="http://www.w3.org/1999/xlink" x="0px" y="0px"
	 viewBox="0 0 32 32" style="enable-background:new 0 0 32 32;" xml:space="preserve">
<g id="guides">
</g>
<g id="cupcake">
</g>
<g id="heart">
</g>
<g id="heart_3">
</g>
<g id="search">
</g>
<g id="rings">
</g>
<g id="ring">
</g>
<g id="ring_2">
</g>
<g id="ring_3">
</g>
<g id="female">
</g>
<g id="male">
</g>
<g id="world">
</g>
<g id="book">
</g>
<g id="computer">
</g>
<g id="mail">
</g>
<g id="letter">
</g>
<g id="chat">
</g>
<g id="calendar">
</g>
<g id="gift">
</g>
<g id="music">
</g>
<g id="bed">
</g>
<g id="condom">
</g>
<g id="lips">
</g>
<g id="champagne">
</g>
<g id="glass_1_">
</g>
<g id="glass_2">
</g>
<g id="glasses">
</g>
<g id="rose">
</g>
<g id="candle">
</g>
<g id="candle_2">
</g>
<g id="bow">
</g>
<g id="bow_2">
</g>
<g id="bow_3">
</g>
<g id="unlocked">
</g>
<g id="locked">
</g>
<g id="key">
</g>
<g id="pin">
</g>
<g id="candy">
</g>
<g id="cup">
	<line style="fill:none;stroke:#6D6E71;stroke-width:2;stroke-miterlimit:10;" x1="8" y1="2" x2="8" y2="7"/>
	<line style="fill:none;stroke:#6D6E71;stroke-width:2;stroke-miterlimit:10;" x1="18" y1="2" x2="18" y2="7"/>
	<line style="fill:none;stroke:#6D6E71;stroke-width:2;stroke-miterlimit:10;" x1="13" y1="0" x2="13" y2="7"/>
	<path style="fill:none;stroke:#6D6E71;stroke-width:2;stroke-miterlimit:10;" d="M1,11h24v4c0,6.627-5.373,12-12,12S1,21.627,1,15
		V11z"/>
	<path style="fill:none;stroke:#6D6E71;stroke-width:2;stroke-miterlimit:10;" d="M25,11h2c2.209,0,4,1.791,4,4s-1.791,4-4,4"/>
	<line style="fill:none;stroke:#6D6E71;stroke-width:2;stroke-miterlimit:10;" x1="27" y1="19" x2="24.316" y2="19"/>
	<path style="fill:none;stroke:#6D6E71;stroke-width:2;stroke-miterlimit:10;" d="M1,27h25v2c0,1.104-0.896,2-2,2H3
		c-1.105,0-2-0.896-2-2V27z"/>
</g>
<g id="shopping">
</g>
<g id="heart_2">
</g>
<g id="dress">
</g>
<g id="do_not_disturb">
</g>
<g id="photo_camera">
</g>
<g id="photos">
</g>
<g id="diamond">
</g>
<g id="church">
</g>
<g id="cake">
</g>
<g id="mustache">
</g>
<g id="video_camera">
</g>
<g id="balloon">
</g>
<g id="bible">
</g>
<g id="necklace">
</g>
<g id="bird">
</g>
<g id="tie">
</g>
<g id="bell">
</g>
<g id="food">
</g>
<g id="violin">
</g>
<g id="car">
</g>
<g id="horn">
</g>
<g id="hearts">
</g>
</svg>
