<?xml version="1.0" encoding="iso-8859-1"?>
<!-- Generator: Adobe Illustrator 19.1.0, SVG Export Plug-In . SVG Version: 6.00 Build 0)  -->
<svg version="1.1" xmlns="http://www.w3.org/2000/svg" xmlns:xlink="http://www.w3.org/1999/xlink" x="0px" y="0px"
	 viewBox="0 0 32 32" style="enable-background:new 0 0 32 32;" xml:space="preserve">
<g id="guides">
</g>
<g id="cupcake">
</g>
<g id="heart">
</g>
<g id="heart_3">
</g>
<g id="search">
</g>
<g id="rings">
</g>
<g id="ring">
</g>
<g id="ring_2">
</g>
<g id="ring_3">
</g>
<g id="female">
</g>
<g id="male">
</g>
<g id="world">
</g>
<g id="book">
</g>
<g id="computer">
	<path style="fill:none;stroke:#FFFFFF;stroke-width:2;stroke-miterlimit:10;" d="M16,16l-4.019-4.019l-1.147-1.149
		c-1.112-1.11-1.112-2.909,0-4.019l0,0c1.107-1.111,2.908-1.111,4.018,0L16,7.961l1.147-1.148c1.109-1.111,2.912-1.111,4.019,0l0,0
		c1.112,1.11,1.112,2.909,0,4.019l-1.147,1.149L16,16z"/>
	<path style="fill:none;stroke:#FFFFFF;stroke-width:2;stroke-miterlimit:10;" d="M31,22c0,1.657-1.344,3-3,3H4
		c-1.656,0-3-1.343-3-3V5c0-1.657,1.344-3,3-3h24c1.656,0,3,1.343,3,3V22z"/>
	<line style="fill:none;stroke:#FFFFFF;stroke-width:2;stroke-miterlimit:10;" x1="1" y1="19" x2="31" y2="19"/>
	<line style="fill:none;stroke:#FFFFFF;stroke-width:2;stroke-miterlimit:10;" x1="9" y1="30" x2="23" y2="30"/>
	<g>
		<path style="fill:#FFFFFF;" d="M16,21c-0.553,0-1,0.448-1,1s0.447,1,1,1s1-0.448,1-1S16.553,21,16,21L16,21z"/>
	</g>
	<line style="fill:none;stroke:#FFFFFF;stroke-width:2;stroke-miterlimit:10;" x1="13" y1="25" x2="13" y2="30"/>
	<line style="fill:none;stroke:#FFFFFF;stroke-width:2;stroke-miterlimit:10;" x1="19" y1="25" x2="19" y2="30"/>
</g>
<g id="mail">
</g>
<g id="letter">
</g>
<g id="chat">
</g>
<g id="calendar">
</g>
<g id="gift">
</g>
<g id="music">
</g>
<g id="bed">
</g>
<g id="condom">
</g>
<g id="lips">
</g>
<g id="champagne">
</g>
<g id="glass_1_">
</g>
<g id="glass_2">
</g>
<g id="glasses">
</g>
<g id="rose">
</g>
<g id="candle">
</g>
<g id="candle_2">
</g>
<g id="bow">
</g>
<g id="bow_2">
</g>
<g id="bow_3">
</g>
<g id="unlocked">
</g>
<g id="locked">
</g>
<g id="key">
</g>
<g id="pin">
</g>
<g id="candy">
</g>
<g id="cup">
</g>
<g id="shopping">
</g>
<g id="heart_2">
</g>
<g id="dress">
</g>
<g id="do_not_disturb">
</g>
<g id="photo_camera">
</g>
<g id="photos">
</g>
<g id="diamond">
</g>
<g id="church">
</g>
<g id="cake">
</g>
<g id="mustache">
</g>
<g id="video_camera">
</g>
<g id="balloon">
</g>
<g id="bible">
</g>
<g id="necklace">
</g>
<g id="bird">
</g>
<g id="tie">
</g>
<g id="bell">
</g>
<g id="food">
</g>
<g id="violin">
</g>
<g id="car">
</g>
<g id="horn">
</g>
<g id="hearts">
</g>
</svg>
